<?xml version="1.0" encoding="UTF-8"?><svg id="Layer_1" xmlns="http://www.w3.org/2000/svg" viewBox="0 0 216 46.18"><defs><style>.cls-1{fill:#000102;}.cls-1,.cls-2{stroke:#fff;stroke-miterlimit:10;}.cls-2{fill:#ed1c24;}</style></defs><path class="cls-1" d="m25.2,45.51v-15.99h-.38c-1.38,0-2.61,2.08-3.21,3.32-.26.52-.46.94-.62,1.24l-5.74,11.43H.84l9.37-17.72c.59-1.13,1.13-2.03,1.63-2.74-1.19-.61-2.21-1.41-3.06-2.4-1.77-2.04-2.66-4.74-2.66-8.03,0-4.83,1.49-8.42,4.42-10.69,2.83-2.19,7.16-3.25,13.23-3.25h14.44v44.84h-13Zm-1.66-33.74c-2.34,0-3.17.5-3.41.71-.47.4-.72,1.33-.72,2.6s.26,2.21.74,2.62c.25.22,1.09.72,3.4.72h1.66v-6.65h-1.66Z"/><path class="cls-1" d="m56.72,45.34c-5.48,0-9.7-2.03-12.54-6.02-2.66-3.74-4-9.19-4-16.21s1.31-12.45,4-16.24c2.84-4,7.06-6.02,12.54-6.02s9.72,2.03,12.56,6.02c2.69,3.79,4,9.1,4,16.24s-1.35,12.47-4,16.21c-2.84,4-7.07,6.02-12.56,6.02Zm0-33.4c-.85,0-1.74.23-2.49,1.87-.57,1.25-1.24,3.88-1.24,9.3s.67,8.03,1.24,9.27c.74,1.64,1.63,1.87,2.49,1.87s1.77-.23,2.51-1.87c.57-1.25,1.24-3.87,1.24-9.27s-.68-8.05-1.24-9.3c-.74-1.64-1.65-1.87-2.51-1.87Z"/><path class="cls-1" d="m98.74,45.51l-5.75-11.46c-.14-.27-.35-.68-.61-1.21-.61-1.24-1.83-3.31-3.21-3.31h-.38v15.99h-13V.67h14.44c6.07,0,10.4,1.06,13.23,3.25,2.94,2.27,4.42,5.87,4.42,10.69,0,3.29-.9,5.99-2.66,8.03-.85.98-1.88,1.78-3.06,2.39.5.71,1.04,1.61,1.64,2.74l9.37,17.72h-14.41Zm-8.29-27.09c2.31,0,3.15-.5,3.4-.72.47-.41.74-1.34.74-2.62s-.26-2.2-.72-2.6c-.25-.21-1.08-.71-3.41-.71h-1.66v6.65h1.66Z"/><path class="cls-2" d="m212.33,23.23c-.65-.69-1.38-1.3-2.21-1.81.37-.28.72-.59,1.03-.93,1.8-1.87,2.71-4.42,2.71-7.57,0-4.1-1.51-7.27-4.49-9.4-2.82-2.02-6.76-3-12.06-3h-16v42.05L169.4.57h-13.81l-9.48,33.41h-19.19V.57h-13v44.83h42.16l2.56-10h7.65l2.62,10h28.4c6.14,0,10.53-1,13.43-3.06,3.07-2.18,4.63-5.62,4.63-10.23,0-3.72-1.02-6.71-3.04-8.88Zm-50.93,1.21l1.08-4.53,1.09,4.53h-2.18Zm32.64-13.18h3.28c2.07,0,2.8.42,3.02.59.48.39.58,1.28.58,1.96,0,.95-.19,1.63-.54,1.9-.16.14-.87.57-3.06.57h-3.28v-5.02Zm7.42,22.59c-.29.23-1.28.78-4.14.78h-3.28v-7.6h3.28c2.6,0,3.63.55,4.02.88.75.64.91,2.04.91,3.09,0,1.42-.28,2.44-.79,2.86Z"/></svg>